<svg xmlns="http://www.w3.org/2000/svg" viewBox="0 0 226.67 271.99"><defs><style>.cls-1{fill:#ff7faf;}</style></defs><title>Asset 1</title><g id="Layer_2" data-name="Layer 2"><g id="Capa_1" data-name="Capa 1"><path class="cls-1" d="M226.67,47.3a8.49,8.49,0,0,0-5.55-8L116.28.53a8.53,8.53,0,0,0-5.9,0L5.55,39.33A8.47,8.47,0,0,0,0,47.3V138C0,241.14,110,271.42,111.16,271.71a8.5,8.5,0,0,0,4.35,0c1.11-.29,111.16-30.58,111.16-133.73Zm-17,90.68c0,83.46-81.34,112.11-96.3,116.67C99,250.11,17,220.69,17,138V53.22l96.33-35.65,96.33,35.65Z"/><path class="cls-1" d="M111.05,85.58c-14.54-15.37-40.12-15.36-54.64,0-14.71,15.55-14.71,40.86,0,56.42l50.74,53.67a8.52,8.52,0,0,0,12.35,0L170.25,142c14.71-15.55,14.71-40.86,0-56.42-14.53-15.36-40.11-15.37-54.64,0L113.33,88Zm8.46,20.63L128,97.27a20.72,20.72,0,0,1,29.93,0,24.35,24.35,0,0,1,0,33l-44.56,47.15L68.77,130.3a24.35,24.35,0,0,1,0-33,20.25,20.25,0,0,1,29.93,0l8.46,8.94A8.78,8.78,0,0,0,119.51,106.21Z"/></g></g></svg>