<svg xmlns="http://www.w3.org/2000/svg" viewBox="0 0 255 255"><defs><style>.cls-1{fill:#ff7faf;}</style></defs><title>Asset 1</title><g id="Layer_2" data-name="Layer 2"><g id="Capa_1" data-name="Capa 1"><path class="cls-1" d="M127.5,255A127.5,127.5,0,1,1,255,127.5,127.64,127.64,0,0,1,127.5,255Zm0-239.06A111.56,111.56,0,1,0,239.06,127.5,111.69,111.69,0,0,0,127.5,15.94Z"/><path class="cls-1" d="M183.28,196.56a7.91,7.91,0,0,1-5.63-2.34l-55.78-55.78a8,8,0,0,1-2.34-5.63V58.44a8,8,0,0,1,15.94,0v71.07L188.91,183a8,8,0,0,1-5.63,13.61Z"/></g></g></svg>