<svg xmlns="http://www.w3.org/2000/svg" viewBox="0 0 315.46 315.46"><defs><style>.cls-1{fill:#ff7faf;}</style></defs><title>Asset 1</title><g id="Layer_2" data-name="Layer 2"><g id="Capa_1" data-name="Capa 1"><path class="cls-1" d="M314.9,40.32a7.34,7.34,0,0,0-6.78-4.53H279.67V7.34a7.34,7.34,0,0,0-12.52-5.19L238.42,30.88a7.33,7.33,0,0,0-2.15,5.19V68.82l-24.1,24.1a127.35,127.35,0,1,0,10.37,10.38l24.1-24.1h32.75A7.34,7.34,0,0,0,284.58,77l28.74-28.74A7.34,7.34,0,0,0,314.9,40.32Zm-64-1.2L265,25v15L250.94,54.15Zm-10.81,149a112.86,112.86,0,1,1-38.41-84.69l-18,18a87.48,87.48,0,1,0,10.38,10.38l18-18A112.25,112.25,0,0,1,240.12,188.06Zm-80,0a32.73,32.73,0,1,1-15.36-27.7l-22.51,22.51a7.34,7.34,0,1,0,10.37,10.37l22.51-22.51A32.47,32.47,0,0,1,160.08,188.06Zm-4.81-38.25a47.43,47.43,0,1,0,10.37,10.38l18.06-18.06a72.78,72.78,0,1,1-10.37-10.38ZM276.35,64.52h-15l14.06-14.06h15Z"/></g></g></svg>