<svg xmlns="http://www.w3.org/2000/svg" viewBox="0 0 283.46 271.65"><defs><style>.cls-1{fill:#ff7faf;}</style></defs><title>Asset 1</title><g id="Layer_2" data-name="Layer 2"><g id="Capa_1" data-name="Capa 1"><path class="cls-1" d="M271.65,218.5H240.2a41.07,41.07,0,0,0-78.83,0H11.81a11.81,11.81,0,1,0,0,23.62H161.37a41.07,41.07,0,0,0,78.83,0h31.45a11.81,11.81,0,0,0,0-23.62ZM200.78,248a17.72,17.72,0,1,1,17.72-17.72A17.74,17.74,0,0,1,200.78,248Z"/><path class="cls-1" d="M271.65,29.53H240.2a41.07,41.07,0,0,0-78.83,0H11.81a11.81,11.81,0,1,0,0,23.62H161.37a41.07,41.07,0,0,0,78.83,0h31.45a11.81,11.81,0,0,0,0-23.62ZM200.78,59.05A17.72,17.72,0,1,1,218.5,41.34,17.74,17.74,0,0,1,200.78,59.05Z"/><path class="cls-1" d="M271.65,124H122.09a41.07,41.07,0,0,0-78.83,0H11.81a11.81,11.81,0,1,0,0,23.62H43.26a41.07,41.07,0,0,0,78.83,0H271.65a11.81,11.81,0,0,0,0-23.62Zm-189,29.53a17.72,17.72,0,1,1,17.72-17.72A17.74,17.74,0,0,1,82.68,153.54Z"/></g></g></svg>