<svg xmlns="http://www.w3.org/2000/svg" viewBox="0 0 283.46 283.46"><defs><style>.cls-1{fill:#fff;}</style></defs><title>Asset 1</title><g id="Layer_2" data-name="Layer 2"><g id="Capa_1" data-name="Capa 1"><path class="cls-1" d="M255.78,24.36H229.39V16.61a16.61,16.61,0,1,0-33.22,0v7.75h-93V16.61a16.61,16.61,0,0,0-33.22,0v8a5.53,5.53,0,0,0-1.48-.2H46.41A27.71,27.71,0,0,0,18.73,52v94.3a5.54,5.54,0,1,0,11.07,0v-65H229.39a5.54,5.54,0,1,0,0-11.07H29.8V52A16.63,16.63,0,0,1,46.41,35.43H68.47a5.53,5.53,0,0,0,1.48-.2v7.13a16.61,16.61,0,0,0,33.22,0V35.43h93v6.92a16.61,16.61,0,1,0,33.22,0V35.43h26.39A16.63,16.63,0,0,1,272.39,52V262.42a10,10,0,0,1-19.94,0V248.1a5.54,5.54,0,0,0-5.54-5.54h-64.4a5.54,5.54,0,1,0,0,11.07h58.86v8.79a20.91,20.91,0,0,0,2.52,10H21a10,10,0,0,1-10-10v-8.79H135a5.54,5.54,0,1,0,0-11.07H79.67a45.4,45.4,0,1,0-59.16,0h-15A5.54,5.54,0,0,0,0,248.1v14.32a21.06,21.06,0,0,0,21,21H262.42a21.07,21.07,0,0,0,21-21V52A27.71,27.71,0,0,0,255.78,24.36Zm-163.69,18a5.54,5.54,0,0,1-11.07,0V16.61a5.54,5.54,0,0,1,11.07,0Zm126.23,0a5.54,5.54,0,1,1-11.07,0V16.61a5.54,5.54,0,1,1,11.07,0ZM15.77,208.17a34.33,34.33,0,1,1,34.33,34.33A34.36,34.36,0,0,1,15.77,208.17Z"/><path class="cls-1" d="M259.27,71.93a5.53,5.53,0,1,0,1.62,3.91A5.58,5.58,0,0,0,259.27,71.93Z"/><path class="cls-1" d="M165.34,244.18a5.54,5.54,0,1,0,1.62,3.91A5.57,5.57,0,0,0,165.34,244.18Z"/><path class="cls-1" d="M125.26,168.3a21,21,0,1,0,21,21A21.06,21.06,0,0,0,125.26,168.3Zm0,31a10,10,0,1,1,10-10A10,10,0,0,1,125.26,199.31Z"/><path class="cls-1" d="M176.93,168.3a21,21,0,1,0,21,21A21.06,21.06,0,0,0,176.93,168.3Zm0,31a10,10,0,1,1,10-10A10,10,0,0,1,176.93,199.31Z"/><path class="cls-1" d="M228.6,168.3a21,21,0,1,0,21,21A21.06,21.06,0,0,0,228.6,168.3Zm0,31a10,10,0,1,1,10-10A10,10,0,0,1,228.6,199.31Z"/><path class="cls-1" d="M73.58,110.73a21,21,0,1,0,21,21A21.06,21.06,0,0,0,73.58,110.73Zm0,31a10,10,0,1,1,10-10A10,10,0,0,1,73.58,141.73Z"/><path class="cls-1" d="M176.93,110.73a21,21,0,1,0,21,21A21.06,21.06,0,0,0,176.93,110.73Zm0,31a10,10,0,1,1,10-10A10,10,0,0,1,176.93,141.73Z"/><path class="cls-1" d="M228.6,110.73a21,21,0,1,0,21,21A21.06,21.06,0,0,0,228.6,110.73Zm0,31a10,10,0,1,1,10-10A10,10,0,0,1,228.6,141.73Z"/><path class="cls-1" d="M125.26,110.73a21,21,0,1,0,21,21A21.06,21.06,0,0,0,125.26,110.73Zm0,31a10,10,0,1,1,10-10A10,10,0,0,1,125.26,141.73Z"/><path class="cls-1" d="M69.82,194.67a5.54,5.54,0,0,0-7.83,0l-18,18-6.16-6.16A5.54,5.54,0,0,0,30,214.37L40,224.45a5.54,5.54,0,0,0,7.83,0L69.82,202.5A5.54,5.54,0,0,0,69.82,194.67Z"/></g></g></svg>