<svg xmlns="http://www.w3.org/2000/svg" viewBox="0 0 752.33 169.16"><defs><style>.cls-1{fill:#f7a;}</style></defs><title>Asset 1</title><g id="Layer_2" data-name="Layer 2"><g id="Слой_1" data-name="Слой 1"><path class="cls-1" d="M1.88,140.23c13.79-3.58,25.74-12.47,36.41-21.59C50.52,108.19,61.6,96.41,72.17,84.29c7.52-8.62,14.71-17.52,22.27-26.1,4.64-5.26,9.38-10.45,14.43-15.33,3.77-3.65,8-8.09,12.89-10.17,4.17-1.78,3.23-.4,1.5,3.09A118.33,118.33,0,0,1,116.63,47c-6.87,10.76-14.18,21.24-21.27,31.85-6.49,9.73-13.25,19.52-18.48,30-2.91,5.85-5.14,17.55,5,16.92,16.9-1,31.21-16.1,41.21-28.31s19.11-25.6,29.15-38l-2.37-1.83c-6.57,14.87-16.51,28.13-22.44,43.31-1.61,4.11-3.82,11.25,2.15,12.75,3.94,1,8.88-1.62,12.38-3.07a83.93,83.93,0,0,0,15.24-8.34l-2.22-.9c2,7.2,9,5.58,14.58,4.16,10.44-2.66,20.95-.35,31.45-3.73s19.29-8.52,30.62-8.24c8.56.21,16.94,1.41,24.47-3.51,1.62-1.06.11-3.68-1.52-2.61-7.31,4.79-15.76,3.22-24,3.08-7.3-.12-13.48,1.71-20.2,4.47-8.21,3.38-16.34,6.44-25.35,6.45-3.91,0-7.82-.44-11.71.11-4.1.58-13.53,5.78-15.41-1a1.52,1.52,0,0,0-2.22-.9c-4,2.7-27.29,16.73-26.8,6.6.24-4.86,4.17-10.61,6.35-14.8,5.61-10.82,12.33-21.16,17.26-32.31.63-1.42-1.2-3.28-2.37-1.83-8.57,10.59-16.35,21.82-24.76,32.53-9.83,12.51-20.25,24.87-35.59,30.72-4.68,1.79-13.86,3-12.56-4.58a22.75,22.75,0,0,1,2.52-6c2.36-4.66,5.09-9.14,7.85-13.57,6.87-11,14.23-21.69,21.47-32.44,5.75-8.54,12-17.07,16.65-26.27,1.52-3,4.22-8.54-1.31-8.75-8-.3-17.13,11.17-22,16.14C94.06,53.66,86.36,62.9,78.62,72.1A444.6,444.6,0,0,1,46.1,107.47c-12.75,12.2-27.54,25.3-45,29.84a1.51,1.51,0,0,0,.8,2.91"/><path class="cls-1" d="M265.85,87.32a1.51,1.51,0,0,0,0-3,1.51,1.51,0,0,0,0,3"/><path class="cls-1" d="M205.88,104.6a81.88,81.88,0,0,1-155.61,9.93l-2.15,1.87a84.56,84.56,0,0,0,160.7-12.6Z"/><path class="cls-1" d="M126.46,2.69a82,82,0,0,1,81.9,81.9c0,2.22-.11,4.41-.29,6.58l2.75-.79c.13-1.92.22-3.84.22-5.79A84.58,84.58,0,1,0,43.72,102.11l2.38-1.76A81.87,81.87,0,0,1,126.46,2.69"/><path class="cls-1" d="M492.34,61.94l-.23,10.89h1.54a17.83,17.83,0,0,1,2-6.41,5.28,5.28,0,0,1,2.82-2.52,26.55,26.55,0,0,1,5.88-.42h6.71v32a48.12,48.12,0,0,1-.32,7.23,3.41,3.41,0,0,1-1.43,2.29,7.85,7.85,0,0,1-4,.74H503v1.54h22.58v-1.54h-2.21q-3,0-4.14-.8a3.54,3.54,0,0,1-1.35-2.47,59.49,59.49,0,0,1-.25-7v-32h7.28a20.94,20.94,0,0,1,5.25.45A5.56,5.56,0,0,1,533,66.36a17.39,17.39,0,0,1,2.1,6.46h1.43l-.23-10.89Z"/><path class="cls-1" d="M637.7,61.94l-.23,10.89H639a17.83,17.83,0,0,1,2-6.41,5.29,5.29,0,0,1,2.82-2.52,26.53,26.53,0,0,1,5.88-.42h6.71v32a48.37,48.37,0,0,1-.32,7.23,3.42,3.42,0,0,1-1.44,2.29,7.85,7.85,0,0,1-4,.74h-2.34v1.54H670.9v-1.54h-2.21q-3,0-4.14-.8a3.53,3.53,0,0,1-1.35-2.47,59.18,59.18,0,0,1-.25-7v-32h7.28a20.92,20.92,0,0,1,5.25.45,5.55,5.55,0,0,1,2.87,2.44,17.41,17.41,0,0,1,2.11,6.46h1.43l-.23-10.89Z"/><path class="cls-1" d="M685.23,63.47h1q3.44,0,4.47.6A3,3,0,0,1,692,66.24a48.61,48.61,0,0,1,.3,7V95.44a51.15,51.15,0,0,1-.3,7.23,3.35,3.35,0,0,1-1.42,2.29,7.84,7.84,0,0,1-4,.73h-1.33v1.54h20.71v-1.54H704.6q-3.07,0-4.16-.8a3.55,3.55,0,0,1-1.34-2.46,59.48,59.48,0,0,1-.25-7V73.22a42.55,42.55,0,0,1,.35-7.15A2.91,2.91,0,0,1,700.59,64a11,11,0,0,1,4.38-.55h1V61.94H685.23Z"/><path class="cls-1" d="M289.19,100.55a44.48,44.48,0,0,1-.33-6.22,2.18,2.18,0,0,0-1.59,0,41.21,41.21,0,0,1-.39,6.3,5.72,5.72,0,0,1-2.22,3.49,8.26,8.26,0,0,1-4.73,1.59v1.54h16.2v-1.54a8.1,8.1,0,0,1-4.88-1.69A5.78,5.78,0,0,1,289.19,100.55Z"/><path class="cls-1" d="M310.33,99.41l-16.6-37.47H279.94v1.54h1.24a19.08,19.08,0,0,1,3.14.21,6.22,6.22,0,0,1,4.54,2.93l18.07,40.62h1.57l17.94-40.62V95.44a48.17,48.17,0,0,1-.32,7.23,3.4,3.4,0,0,1-1.43,2.29,7.75,7.75,0,0,1-4,.74h-1.6v1.54h21.64v-1.54h-2q-3.07,0-4.16-.8a3.61,3.61,0,0,1-1.35-2.46,55.64,55.64,0,0,1-.27-7V73.23a42.54,42.54,0,0,1,.35-7.15A2.91,2.91,0,0,1,334.68,64a11,11,0,0,1,4.37-.55h1.67V61.94H326.84Z"/><path class="cls-1" d="M369,61.49a14.76,14.76,0,0,1,10.5,4.07c2.88,2.72,4.65,7.65,5.29,12.3h1.61V62.74h-1.61a15.77,15.77,0,0,1-1.4,5,19.25,19.25,0,0,0-15-6.68q-10.56,0-16.7,7.31a25.68,25.68,0,0,0-6.15,17A21.88,21.88,0,0,0,352,101.66a21.51,21.51,0,0,0,13.19,6.22,5.65,5.65,0,0,1-.11-.9,2.5,2.5,0,0,1,.25-1,14.75,14.75,0,0,1-7.59-4.58q-4.57-5-4.58-17.08c0-8.06,1.58-14.92,4.74-18.08A15.23,15.23,0,0,1,369,61.49Z"/><path class="cls-1" d="M373.6,89.49h1.07a10.89,10.89,0,0,1,3.67.42,2.75,2.75,0,0,1,1.49,1.64,15,15,0,0,1,.48,4.61h0v9.21l0,2.34a38.88,38.88,0,0,0,6.49-1.18v-2h0V99.68a42.8,42.8,0,0,1,.37-7.37,3.22,3.22,0,0,1,1.52-2.17,10,10,0,0,1,4.39-.65v-1.6H373.6Z"/><path class="cls-1" d="M437.24,80.19a3,3,0,0,1-1.74,1.72,10.35,10.35,0,0,1-3.41.54V84.1a12.4,12.4,0,0,1,3.07.37A3.07,3.07,0,0,1,437,86.13a13.24,13.24,0,0,1,.63,5.06h1.57V75.7h-1.57A15.61,15.61,0,0,1,437.24,80.19Z"/><path class="cls-1" d="M446.33,101.51a10.52,10.52,0,0,1-4.39,3.77,16,16,0,0,1-5.88.92h-3.37q-4.54,0-5.58-1.42c-.69-.95-1-4.61-1-10v-6h0V76.3h0V62.9h6.28a32.4,32.4,0,0,1,6.88.52,6.63,6.63,0,0,1,3.69,2.51c1,1.33,1.91,4.14,2.62,7.3h1.57L446,61.94H413.68v1q3.27,0,4.29.65c.68.44,1.11,1.77,1.3,2.86a50.45,50.45,0,0,1,.28,6.81V95.44a52.9,52.9,0,0,1-.27,7.06,5.62,5.62,0,0,1-1.25,2.8q-1,.9-4.36.9h-.94v1h37.51l1-14.1h-1.6C448.82,96.47,447.72,99.61,446.33,101.51Z"/><path class="cls-1" d="M474.81,62.83a20.39,20.39,0,0,1,2.82,2.2c2.15,2,3.35,5.31,4.19,8.76h1.47V61.94h-1.47a7.15,7.15,0,0,1-1.74,4,14.51,14.51,0,0,0-4.73-3.65C473.46,61.48,473.23,62,474.81,62.83Z"/><path class="cls-1" d="M481.37,84.1a87.37,87.37,0,0,0-8.5-4.19q-6.11-2.74-8.45-4.94A6.92,6.92,0,0,1,462,69.65c0-1.74.06-3.66,1.32-5.12A11.58,11.58,0,0,1,466,62.29c1-.49,1.19-.93-.15-.68A11.18,11.18,0,0,0,461,64.32a10.72,10.72,0,0,0-3.36,8.07,12.15,12.15,0,0,0,1.55,6,12.46,12.46,0,0,0,4.33,4.56A62,62,0,0,0,471.7,87q6.11,2.6,8.42,4.87a7.76,7.76,0,0,1,2.3,5.71,11.6,11.6,0,0,1-2.62,7.33q-2.62,2.72-7.4,2.72c-7.08,0-11.57-6-13.46-15.46h-1.67v14.56h1.67a11.39,11.39,0,0,1,1.64-4.41A15.81,15.81,0,0,0,473,108.06q6.48,0,10.35-3.64A12.38,12.38,0,0,0,487.23,95a12.83,12.83,0,0,0-1.6-6.48A11.85,11.85,0,0,0,481.37,84.1Z"/><path class="cls-1" d="M620.7,80.19A3,3,0,0,1,619,81.91a10.36,10.36,0,0,1-3.41.54V84.1a12.4,12.4,0,0,1,3.07.37,3.07,3.07,0,0,1,1.85,1.67,13.23,13.23,0,0,1,.64,5.06h1.57V75.7h-1.57A15.59,15.59,0,0,1,620.7,80.19Z"/><path class="cls-1" d="M629.79,101.51c-1.39,1.9-2.86,3.59-4.39,4.21a16,16,0,0,1-5.88.92h-3.37q-4.54,0-5.58-1.42c-.69-.95-1-5-1-10.41v-6h0V76.3h0V62.44h6.28a32.4,32.4,0,0,1,6.88.52c1.43.35,2.66,1.64,3.69,3s1.91,4.14,2.62,7.3h1.57l-1.07-11.29H597.14v.51a8,8,0,0,1,4.29,1.11c.68.44,1.11,1.77,1.3,2.86a50.44,50.44,0,0,1,.28,6.81V95.44a52.9,52.9,0,0,1-.27,7.06,7.23,7.23,0,0,1-1.25,3.23q-1,.9-4.36.9h-.94v.59h37.51l1-14.1h-1.6C632.28,96.47,631.18,99.61,629.79,101.51Z"/><path class="cls-1" d="M555.31,104.89a3.61,3.61,0,0,1-1.35-2.46,55.65,55.65,0,0,1-.27-7V84.52h26.25c0,3.21,0,5.92,0,6.92a2.19,2.19,0,0,0,1.59,0c0-3,.16-21.69.39-22.89a6.63,6.63,0,0,1,2-4c1.21-.95,4.79-.94,6.73-1h0V61.94H570.06v1.54h0c2.09.13,6.12.16,7.28,1.15a7.51,7.51,0,0,1,2.32,4c.12.7.2,7.51.26,13.58H553.69v-9a42.55,42.55,0,0,1,.35-7.15A2.91,2.91,0,0,1,555.43,64a10.91,10.91,0,0,1,4.34-.55h.83V61.94H540.23v1.54h.84q3.44,0,4.46.6a3.05,3.05,0,0,1,1.34,2.17,45.92,45.92,0,0,1,.32,7V95.44a48.31,48.31,0,0,1-.32,7.23,3.41,3.41,0,0,1-1.43,2.29,7.84,7.84,0,0,1-4,.74h-1.17v1.54h20.37v-1.54h-1.17Q556.4,105.69,555.31,104.89Z"/><path class="cls-1" d="M585.8,104.89a3.54,3.54,0,0,1-1.35-2.46,59.81,59.81,0,0,1-.25-7V94.25h-6.54v1.19a51,51,0,0,1-.3,7.23,3.35,3.35,0,0,1-1.42,2.29,7.75,7.75,0,0,1-4,.74h-1.57v1.54H591v-1.54h-1Q586.9,105.69,585.8,104.89Z"/><path class="cls-1" d="M734.33,61.57a16.63,16.63,0,0,1,10.44,3.57c3.08,2.38,5.13,7.86,6.13,14h1.44l-.4-17.17h-1.47a16.53,16.53,0,0,1-1.74,5.88,18.46,18.46,0,0,0-6.16-4.63,20.11,20.11,0,0,0-9.2-2.09A22.77,22.77,0,0,0,722.07,64a19.42,19.42,0,0,0-8,8.8,28.61,28.61,0,0,0-2.87,12.64q0,10.22,6.23,16.43A21.21,21.21,0,0,0,731.35,108a.68.68,0,0,1,0-.45,14.45,14.45,0,0,1-8.42-5.14c-3.05-3.62-4.06-10.49-4.06-17.28,0-7.17,1.4-13.91,4.19-17.77A13.26,13.26,0,0,1,734.33,61.57Z"/><path class="cls-1" d="M748.27,98.39c-1.28,2.44-3.24,5.62-5.4,7.19a1,1,0,0,1,.19.2,19.93,19.93,0,0,0,5.66-4.47,12.18,12.18,0,0,1,2.17,4.78h1.44V90.23h-1.44A22.51,22.51,0,0,1,748.27,98.39Z"/></g></g></svg>