<svg xmlns="http://www.w3.org/2000/svg" viewBox="0 0 351.67 328.28"><defs><style>.cls-1{fill:#ff7faf;}</style></defs><title>Asset 2</title><g id="Layer_2" data-name="Layer 2"><g id="Capa_1" data-name="Capa 1"><path class="cls-1" d="M343.07,154.14H242.32a8.6,8.6,0,0,0-7.62,12.58,66.37,66.37,0,1,1-117.73,0,8.6,8.6,0,0,0-7.62-12.58H8.6a8.6,8.6,0,0,0,0,17.2H96.42a84,84,0,0,0,29.14,92.78,83.57,83.57,0,0,0,100.54,0,84,84,0,0,0,29.14-92.78h87.82a8.6,8.6,0,1,0,0-17.2Z"/><path class="cls-1" d="M175.88,252.11a54.22,54.22,0,0,0,33.58-11.53,55,55,0,0,0,11.88-73.66,81,81,0,0,1-14.42-55.83,313.27,313.27,0,0,1,23.92-90.7A14.37,14.37,0,0,0,207,4.93C189.61,25,166.71,61.76,156.08,122.67a71.21,71.21,0,0,1-19.7,36.8,54.74,54.74,0,0,0,39.5,92.65Zm14-143.14a99.34,99.34,0,0,0,17.18,67.57A37.67,37.67,0,0,1,198.88,227a37.17,37.17,0,0,1-23,7.91,37.53,37.53,0,0,1-27.13-63.48A88.23,88.23,0,0,0,173,125.69c7.5-42.92,21.28-72.78,34.41-92.8A330.05,330.05,0,0,0,189.87,109Z"/><circle class="cls-1" cx="37.44" cy="197.34" r="8.6"/><circle class="cls-1" cx="72.03" cy="197.34" r="8.6"/><circle class="cls-1" cx="54.73" cy="220.41" r="8.6"/><circle class="cls-1" cx="72.03" cy="243.47" r="8.6"/><circle class="cls-1" cx="89.33" cy="266.54" r="8.6"/><circle class="cls-1" cx="106.64" cy="289.61" r="8.6"/><circle class="cls-1" cx="141.23" cy="289.61" r="8.6"/><circle class="cls-1" cx="175.83" cy="296.61" r="8.6"/><circle class="cls-1" cx="314.23" cy="197.34" r="8.6"/><circle class="cls-1" cx="279.63" cy="197.34" r="8.6"/><circle class="cls-1" cx="296.94" cy="220.41" r="8.6"/><circle class="cls-1" cx="279.63" cy="243.47" r="8.6"/><circle class="cls-1" cx="262.33" cy="266.54" r="8.6"/><circle class="cls-1" cx="245.03" cy="289.61" r="8.6"/><circle class="cls-1" cx="210.44" cy="289.61" r="8.6"/><circle class="cls-1" cx="158.53" cy="319.68" r="8.6"/><circle class="cls-1" cx="126.1" cy="312.67" r="8.6"/><circle class="cls-1" cx="227.73" cy="312.67" r="8.6"/><circle class="cls-1" cx="193.13" cy="319.68" r="8.6"/></g></g></svg>