<svg xmlns="http://www.w3.org/2000/svg" viewBox="0 0 265.73 283.46"><defs><style>.cls-1{fill:#ff7faf;}</style></defs><title>Asset 1</title><g id="Layer_2" data-name="Layer 2"><g id="Capa_1" data-name="Capa 1"><path class="cls-1" d="M260.75.9A8.8,8.8,0,0,0,251.29,2c-22,17.91-42.57,25.47-66.38,34.26-16.1,5.92-34.32,12.65-55,23.54-20.83,11.9-28.08,37.45-30.49,57-1.88-6.5-3-15.43-2.05-27.56a8.86,8.86,0,0,0-14.7-7.3C17.66,139.27,22.39,191.48,34,227.41,12.33,251,2,268.74,1.16,270.23a8.84,8.84,0,0,0,3.31,12.06,8.71,8.71,0,0,0,4.36,1.17A8.92,8.92,0,0,0,16.56,279c.19-.34,9.88-16.85,30.42-39.28a221.52,221.52,0,0,0,41.84,4.43c36.32,0,67.89-10.52,94.21-31.48,79.45-63.24,82.59-198,82.7-203.66A8.86,8.86,0,0,0,260.75.9ZM172,198.82C142.82,222,105.81,230.4,62,224.27a382.26,382.26,0,0,1,92.56-65.81,8.85,8.85,0,0,0-8-15.77,400.64,400.64,0,0,0-98.37,70.06C41,184.18,42.32,148.95,80,109.09c3.84,32.86,23.28,40.59,24.25,40.94a8.86,8.86,0,0,0,12-8.93c-1-14.17,1-53.64,22.25-65.78C157.82,65.12,174.71,58.9,191,52.88c19-7,37.11-13.66,55.73-25.71C243,65.53,228.38,154,172,198.82Z"/><path class="cls-1" d="M186,265.74H44.28a8.86,8.86,0,1,0,0,17.72H186a8.86,8.86,0,0,0,0-17.72Z"/></g></g></svg>