<svg xmlns="http://www.w3.org/2000/svg" viewBox="0 0 472.39 339.18"><defs><style>.cls-1{fill:#f7a;}</style></defs><title>Asset 3</title><g id="Layer_2" data-name="Layer 2"><g id="Слой_1" data-name="Слой 1"><path class="cls-1" d="M42.31,206.33C62.6,201.06,80.18,188,95.88,174.56c18-15.38,34.3-32.71,49.85-50.54,11.06-12.69,21.64-25.78,32.77-38.41,6.83-7.74,13.81-15.38,21.23-22.56,5.54-5.37,11.75-11.9,19-15,6.14-2.61,4.75-.59,2.21,4.55a174.11,174.11,0,0,1-9.75,16.47C201,84.93,190.29,100.35,179.86,116c-9.55,14.31-19.49,28.72-27.18,44.16-4.29,8.61-7.57,25.82,7.36,24.9,24.86-1.53,45.93-23.68,60.63-41.66,14.88-18.19,28.11-37.66,42.89-55.93l-3.49-2.69c-9.67,21.88-24.29,41.39-33,63.73-2.36,6-5.62,16.55,3.16,18.76,5.8,1.46,13.07-2.39,18.21-4.52a123.52,123.52,0,0,0,22.42-12.27l-3.26-1.33c3,10.59,13.22,8.21,21.45,6.12,15.37-3.92,30.82-.52,46.28-5.49s28.38-12.54,45-12.12c12.59.31,24.93,2.08,36-5.17,2.38-1.56.16-5.41-2.24-3.84-10.75,7-23.19,4.73-35.31,4.53C368,133,359,135.66,349.08,139.73c-12.08,5-24,9.47-37.31,9.49-5.75,0-11.5-.65-17.23.16-6,.86-19.9,8.5-22.68-1.45a2.24,2.24,0,0,0-3.26-1.33c-5.83,4-40.16,24.62-39.43,9.71.35-7.15,6.14-15.62,9.34-21.78,8.25-15.91,18.15-31.13,25.4-47.54.92-2.08-1.76-4.83-3.49-2.69-12.61,15.59-24.05,32.1-36.44,47.87-14.46,18.4-29.8,36.59-52.37,45.2-6.88,2.63-20.39,4.4-18.47-6.75.53-3.1,2.3-6.11,3.71-8.9,3.47-6.86,7.49-13.45,11.55-20C178.5,125.57,189.33,109.84,200,94c8.46-12.56,17.62-25.12,24.5-38.65,2.24-4.41,6.21-12.56-1.93-12.87-11.73-.45-25.21,16.43-32.3,23.75-12.31,12.71-23.66,26.31-35,39.84-15.17,18-30.8,35.74-47.84,52-18.75,18-40.52,37.23-66.26,43.91-2.77.72-1.59,5,1.18,4.29"/><path class="cls-1" d="M430.7,128.48c2.86,0,2.86-4.44,0-4.44s-2.86,4.44,0,4.44"/><path class="cls-1" d="M342.46,153.91a120.47,120.47,0,0,1-229,14.6l-3.16,2.75A124.63,124.63,0,0,0,225.62,248.9c58.89,0,108.33-41.14,121.17-96.18Z"/><path class="cls-1" d="M225.62,4a120.63,120.63,0,0,1,120.5,120.5c0,3.26-.17,6.48-.42,9.68l4-1.16c.19-2.82.33-5.65.33-8.52a124.45,124.45,0,1,0-246.19,25.8l3.51-2.6A120.46,120.46,0,0,1,225.62,4"/><path class="cls-1" d="M212.4,293.06l-.23,10.89h1.54a17.83,17.83,0,0,1,2-6.41,5.28,5.28,0,0,1,2.82-2.52,26.55,26.55,0,0,1,5.88-.42h6.71v32a48.12,48.12,0,0,1-.32,7.23,3.41,3.41,0,0,1-1.43,2.29,7.85,7.85,0,0,1-4,.74H223v1.54H245.6v-1.54h-2.21q-3,0-4.14-.8a3.54,3.54,0,0,1-1.35-2.47,59.5,59.5,0,0,1-.25-7v-32h7.28a21,21,0,0,1,5.25.45,5.56,5.56,0,0,1,2.87,2.44,17.39,17.39,0,0,1,2.1,6.46h1.43l-.23-10.89Z"/><path class="cls-1" d="M357.76,293.06l-.23,10.89h1.54a17.83,17.83,0,0,1,2-6.41A5.29,5.29,0,0,1,363.9,295a26.53,26.53,0,0,1,5.88-.42h6.71v32a48.37,48.37,0,0,1-.32,7.23,3.42,3.42,0,0,1-1.44,2.29,7.85,7.85,0,0,1-4,.74h-2.34v1.54H391v-1.54h-2.21q-3,0-4.14-.8a3.53,3.53,0,0,1-1.35-2.47,59.18,59.18,0,0,1-.25-7v-32h7.28a20.93,20.93,0,0,1,5.25.45,5.55,5.55,0,0,1,2.87,2.44,17.4,17.4,0,0,1,2.11,6.46h1.43l-.23-10.89Z"/><path class="cls-1" d="M405.29,294.59h1q3.44,0,4.47.6a3,3,0,0,1,1.34,2.17,48.61,48.61,0,0,1,.3,7v22.21a51.15,51.15,0,0,1-.3,7.23,3.35,3.35,0,0,1-1.42,2.29,7.84,7.84,0,0,1-4,.73h-1.33v1.54H426v-1.54h-1.34q-3.07,0-4.16-.8a3.55,3.55,0,0,1-1.34-2.46,59.48,59.48,0,0,1-.25-7V304.34a42.55,42.55,0,0,1,.35-7.15,2.91,2.91,0,0,1,1.39-2.05,11,11,0,0,1,4.38-.55h1v-1.54H405.29Z"/><path class="cls-1" d="M9.25,331.67a44.49,44.49,0,0,1-.33-6.22,2.18,2.18,0,0,0-1.59,0,41.22,41.22,0,0,1-.39,6.3,5.72,5.72,0,0,1-2.22,3.49A8.26,8.26,0,0,1,0,336.81v1.54H16.2v-1.54a8.1,8.1,0,0,1-4.88-1.69A5.78,5.78,0,0,1,9.25,331.67Z"/><path class="cls-1" d="M30.39,330.53l-16.6-37.47H0v1.54H1.24a19.08,19.08,0,0,1,3.14.21,6.22,6.22,0,0,1,4.54,2.93L27,338.35h1.57l17.94-40.62v28.82a48.18,48.18,0,0,1-.32,7.23,3.4,3.4,0,0,1-1.43,2.29,7.76,7.76,0,0,1-4,.74h-1.6v1.54H60.79v-1.54h-2q-3.07,0-4.16-.8a3.61,3.61,0,0,1-1.35-2.46,55.64,55.64,0,0,1-.27-7V304.34a42.54,42.54,0,0,1,.35-7.15,2.91,2.91,0,0,1,1.39-2.05,11,11,0,0,1,4.37-.55h1.67v-1.54H46.9Z"/><path class="cls-1" d="M89.08,292.61a14.76,14.76,0,0,1,10.5,4.07c2.88,2.72,4.65,7.65,5.29,12.3h1.61V293.86h-1.61a15.77,15.77,0,0,1-1.4,5,19.25,19.25,0,0,0-15-6.68q-10.56,0-16.7,7.31a25.68,25.68,0,0,0-6.15,17A21.88,21.88,0,0,0,72,332.78,21.51,21.51,0,0,0,85.24,339a5.65,5.65,0,0,1-.11-.9,2.5,2.5,0,0,1,.25-1,14.75,14.75,0,0,1-7.59-4.58q-4.57-5-4.58-17.08c0-8.06,1.58-14.92,4.74-18.08A15.23,15.23,0,0,1,89.08,292.61Z"/><path class="cls-1" d="M93.66,320.61h1.07a10.89,10.89,0,0,1,3.67.42,2.75,2.75,0,0,1,1.49,1.64,15,15,0,0,1,.48,4.61h0v9.21l0,2.34a38.87,38.87,0,0,0,6.49-1.18v-2h0V330.8a42.8,42.8,0,0,1,.37-7.37,3.22,3.22,0,0,1,1.52-2.17,10,10,0,0,1,4.39-.65V319H93.66Z"/><path class="cls-1" d="M157.3,311.31a3,3,0,0,1-1.74,1.72,10.35,10.35,0,0,1-3.41.54v1.65a12.4,12.4,0,0,1,3.07.37,3.07,3.07,0,0,1,1.85,1.67,13.24,13.24,0,0,1,.63,5.06h1.57v-15.5h-1.57A15.61,15.61,0,0,1,157.3,311.31Z"/><path class="cls-1" d="M166.39,332.63A10.52,10.52,0,0,1,162,336.4a16,16,0,0,1-5.88.92h-3.37q-4.54,0-5.58-1.42c-.69-.95-1-4.61-1-10v-6h0V307.42h0V294h6.28a32.4,32.4,0,0,1,6.88.52A6.63,6.63,0,0,1,163,297c1,1.33,1.91,4.14,2.62,7.3h1.57l-1.07-11.29H133.74v1q3.27,0,4.29.65c.68.44,1.11,1.77,1.3,2.86a50.44,50.44,0,0,1,.28,6.81v22.21a52.9,52.9,0,0,1-.27,7.06,5.62,5.62,0,0,1-1.25,2.8q-1,.9-4.36.9h-.94v1h37.51l1-14.1h-1.6C168.88,327.59,167.78,330.73,166.39,332.63Z"/><path class="cls-1" d="M194.87,294a20.4,20.4,0,0,1,2.82,2.2c2.15,2,3.35,5.31,4.19,8.76h1.47V293.06h-1.47a7.15,7.15,0,0,1-1.74,4,14.51,14.51,0,0,0-4.73-3.65C193.52,292.6,193.29,293.13,194.87,294Z"/><path class="cls-1" d="M201.43,315.22a87.36,87.36,0,0,0-8.5-4.19q-6.11-2.74-8.45-4.94a6.93,6.93,0,0,1-2.37-5.31c0-1.74.06-3.66,1.32-5.12a11.58,11.58,0,0,1,2.65-2.24c1-.49,1.19-.93-.15-.68a11.18,11.18,0,0,0-4.91,2.72,10.72,10.72,0,0,0-3.36,8.07,12.15,12.15,0,0,0,1.55,6,12.46,12.46,0,0,0,4.33,4.56,62,62,0,0,0,8.22,4.09q6.11,2.6,8.42,4.87a7.76,7.76,0,0,1,2.3,5.71,11.6,11.6,0,0,1-2.62,7.33q-2.62,2.72-7.4,2.72c-7.08,0-11.57-6-13.46-15.46h-1.67v14.56H179a11.39,11.39,0,0,1,1.64-4.41,15.81,15.81,0,0,0,12.43,5.71q6.48,0,10.35-3.64a12.38,12.38,0,0,0,3.87-9.45,12.83,12.83,0,0,0-1.6-6.48A11.85,11.85,0,0,0,201.43,315.22Z"/><path class="cls-1" d="M340.77,311.31A3,3,0,0,1,339,313a10.35,10.35,0,0,1-3.41.54v1.65a12.4,12.4,0,0,1,3.07.37,3.07,3.07,0,0,1,1.85,1.67,13.23,13.23,0,0,1,.64,5.06h1.57v-15.5h-1.57A15.59,15.59,0,0,1,340.77,311.31Z"/><path class="cls-1" d="M349.85,332.63c-1.39,1.9-2.86,3.59-4.39,4.2a16,16,0,0,1-5.88.92h-3.37q-4.54,0-5.58-1.42c-.69-.95-1-5-1-10.41v-6h0V307.42h0V293.56h6.28a32.39,32.39,0,0,1,6.88.52c1.43.35,2.66,1.64,3.69,3s1.91,4.14,2.62,7.3h1.57l-1.07-11.29H317.2v.51a8,8,0,0,1,4.29,1.11c.68.44,1.11,1.77,1.3,2.86a50.44,50.44,0,0,1,.28,6.81v22.21a52.9,52.9,0,0,1-.27,7.06,7.23,7.23,0,0,1-1.25,3.23q-1,.9-4.36.9h-.94v.59h37.51l1-14.1h-1.6C352.34,327.59,351.24,330.73,349.85,332.63Z"/><path class="cls-1" d="M275.38,336a3.61,3.61,0,0,1-1.35-2.46,55.65,55.65,0,0,1-.27-7V315.63H300c0,3.21,0,5.92,0,6.92a2.19,2.19,0,0,0,1.59,0c0-3,.16-21.69.39-22.89a6.63,6.63,0,0,1,2-4c1.21-.95,4.79-.94,6.73-1h0v-1.54H290.12v1.54h0c2.09.13,6.12.16,7.28,1.15a7.51,7.51,0,0,1,2.32,4c.12.7.2,7.51.26,13.58H273.76v-9a42.55,42.55,0,0,1,.35-7.15,2.91,2.91,0,0,1,1.38-2.05,10.91,10.91,0,0,1,4.34-.55h.83v-1.54H260.29v1.54h.83q3.44,0,4.46.6a3.05,3.05,0,0,1,1.34,2.17,45.92,45.92,0,0,1,.32,7v22.21a48.31,48.31,0,0,1-.32,7.23,3.41,3.41,0,0,1-1.43,2.29,7.84,7.84,0,0,1-4,.74h-1.17v1.54h20.37v-1.54H279.5Q276.46,336.81,275.38,336Z"/><path class="cls-1" d="M305.86,336a3.54,3.54,0,0,1-1.35-2.46,59.81,59.81,0,0,1-.25-7v-1.19h-6.54v1.19a51,51,0,0,1-.3,7.23,3.35,3.35,0,0,1-1.42,2.29,7.75,7.75,0,0,1-4,.74h-1.57v1.54H311v-1.54h-1Q307,336.81,305.86,336Z"/><path class="cls-1" d="M454.39,292.69a16.63,16.63,0,0,1,10.44,3.57c3.08,2.38,5.13,7.86,6.13,14h1.44l-.4-17.17h-1.47a16.53,16.53,0,0,1-1.74,5.88,18.46,18.46,0,0,0-6.16-4.63,20.11,20.11,0,0,0-9.2-2.09,22.77,22.77,0,0,0-11.29,2.87,19.42,19.42,0,0,0-8,8.8,28.61,28.61,0,0,0-2.87,12.64q0,10.22,6.23,16.43a21.21,21.21,0,0,0,13.94,6.13.68.68,0,0,1,0-.45,14.45,14.45,0,0,1-8.42-5.14c-3.05-3.62-4.06-10.49-4.06-17.28,0-7.17,1.4-13.91,4.19-17.77A13.26,13.26,0,0,1,454.39,292.69Z"/><path class="cls-1" d="M468.33,329.51c-1.28,2.44-3.24,5.62-5.4,7.19a1,1,0,0,1,.19.2,19.93,19.93,0,0,0,5.66-4.47,12.19,12.19,0,0,1,2.17,4.78h1.44V321.34H471A22.51,22.51,0,0,1,468.33,329.51Z"/></g></g></svg>