<svg xmlns="http://www.w3.org/2000/svg" viewBox="0 0 472.39 46.96"><defs><style>.cls-1{fill:#f7a;}</style></defs><title>Asset 1</title><g id="Layer_2" data-name="Layer 2"><g id="Слой_1" data-name="Слой 1"><path class="cls-1" d="M212.4.84l-.23,10.89h1.54a17.83,17.83,0,0,1,2-6.41,5.28,5.28,0,0,1,2.82-2.52,26.55,26.55,0,0,1,5.88-.42h6.71v32a48.12,48.12,0,0,1-.32,7.23,3.41,3.41,0,0,1-1.43,2.29,7.85,7.85,0,0,1-4,.74H223v1.54H245.6V44.59h-2.21q-3,0-4.14-.8a3.54,3.54,0,0,1-1.35-2.47,59.49,59.49,0,0,1-.25-7v-32h7.28a20.94,20.94,0,0,1,5.25.45A5.56,5.56,0,0,1,253,5.26a17.39,17.39,0,0,1,2.1,6.46h1.43L256.35.84Z"/><path class="cls-1" d="M357.76.84l-.23,10.89h1.54a17.83,17.83,0,0,1,2-6.41,5.29,5.29,0,0,1,2.82-2.52,26.53,26.53,0,0,1,5.88-.42h6.71v32a48.37,48.37,0,0,1-.32,7.23,3.42,3.42,0,0,1-1.44,2.29,7.85,7.85,0,0,1-4,.74h-2.34v1.54H391V44.59h-2.21q-3,0-4.14-.8a3.53,3.53,0,0,1-1.35-2.47,59.18,59.18,0,0,1-.25-7v-32h7.28a20.92,20.92,0,0,1,5.25.45,5.55,5.55,0,0,1,2.87,2.44,17.41,17.41,0,0,1,2.11,6.46h1.43L401.71.84Z"/><path class="cls-1" d="M405.29,2.37h1q3.44,0,4.47.6a3,3,0,0,1,1.34,2.17,48.61,48.61,0,0,1,.3,7V34.34a51.15,51.15,0,0,1-.3,7.23,3.35,3.35,0,0,1-1.42,2.29,7.84,7.84,0,0,1-4,.73h-1.33v1.54H426V44.59h-1.34q-3.07,0-4.16-.8a3.55,3.55,0,0,1-1.34-2.46,59.48,59.48,0,0,1-.25-7V12.12A42.55,42.55,0,0,1,419.27,5a2.91,2.91,0,0,1,1.39-2.05A11,11,0,0,1,425,2.37h1V.84H405.29Z"/><path class="cls-1" d="M9.25,39.45a44.48,44.48,0,0,1-.33-6.22,2.18,2.18,0,0,0-1.59,0,41.21,41.21,0,0,1-.39,6.3A5.72,5.72,0,0,1,4.73,43,8.26,8.26,0,0,1,0,44.59v1.54H16.2V44.59a8.1,8.1,0,0,1-4.88-1.69A5.78,5.78,0,0,1,9.25,39.45Z"/><path class="cls-1" d="M30.39,38.31,13.79.84H0V2.37H1.24a19.08,19.08,0,0,1,3.14.21A6.22,6.22,0,0,1,8.92,5.51L27,46.13h1.57L46.49,5.51V34.34a48.17,48.17,0,0,1-.32,7.23,3.4,3.4,0,0,1-1.43,2.29,7.75,7.75,0,0,1-4,.74h-1.6v1.54H60.79V44.59h-2q-3.07,0-4.16-.8a3.61,3.61,0,0,1-1.35-2.46,55.64,55.64,0,0,1-.27-7V12.12A42.54,42.54,0,0,1,53.36,5a2.91,2.91,0,0,1,1.39-2.05,11,11,0,0,1,4.37-.55h1.67V.84H46.9Z"/><path class="cls-1" d="M89.08.39a14.76,14.76,0,0,1,10.5,4.07c2.88,2.72,4.65,7.65,5.29,12.3h1.61V1.64h-1.61a15.77,15.77,0,0,1-1.4,5A19.25,19.25,0,0,0,88.45,0Q77.89,0,71.75,7.31a25.68,25.68,0,0,0-6.15,17A21.88,21.88,0,0,0,72,40.56a21.51,21.51,0,0,0,13.19,6.22,5.65,5.65,0,0,1-.11-.9,2.5,2.5,0,0,1,.25-1,14.75,14.75,0,0,1-7.59-4.58q-4.57-5-4.58-17.08c0-8.06,1.58-14.92,4.74-18.08A15.23,15.23,0,0,1,89.08.39Z"/><path class="cls-1" d="M93.66,28.39h1.07a10.89,10.89,0,0,1,3.67.42,2.75,2.75,0,0,1,1.49,1.64,15,15,0,0,1,.48,4.61h0v9.21l0,2.34a38.88,38.88,0,0,0,6.49-1.18v-2h0V38.58a42.8,42.8,0,0,1,.37-7.37A3.22,3.22,0,0,1,108.8,29a10,10,0,0,1,4.39-.65v-1.6H93.66Z"/><path class="cls-1" d="M157.3,19.09a3,3,0,0,1-1.74,1.72,10.35,10.35,0,0,1-3.41.54V23a12.4,12.4,0,0,1,3.07.37A3.07,3.07,0,0,1,157.09,25a13.24,13.24,0,0,1,.63,5.06h1.57V14.6h-1.57A15.61,15.61,0,0,1,157.3,19.09Z"/><path class="cls-1" d="M166.39,40.41A10.52,10.52,0,0,1,162,44.18a16,16,0,0,1-5.88.92h-3.37q-4.54,0-5.58-1.42c-.69-.95-1-4.61-1-10v-6h0V15.2h0V1.8h6.28a32.4,32.4,0,0,1,6.88.52A6.63,6.63,0,0,1,163,4.82c1,1.33,1.91,4.14,2.62,7.3h1.57L166.11.84H133.74v1q3.27,0,4.29.65c.68.44,1.11,1.77,1.3,2.86a50.45,50.45,0,0,1,.28,6.81V34.34a52.9,52.9,0,0,1-.27,7.06,5.62,5.62,0,0,1-1.25,2.8q-1,.9-4.36.9h-.94v1h37.51l1-14.1h-1.6C168.88,35.37,167.78,38.51,166.39,40.41Z"/><path class="cls-1" d="M194.87,1.73a20.39,20.39,0,0,1,2.82,2.2c2.15,2,3.35,5.31,4.19,8.76h1.47V.84h-1.47a7.15,7.15,0,0,1-1.74,4,14.51,14.51,0,0,0-4.73-3.65C193.52.38,193.29.91,194.87,1.73Z"/><path class="cls-1" d="M201.43,23a87.37,87.37,0,0,0-8.5-4.19q-6.11-2.74-8.45-4.94a6.92,6.92,0,0,1-2.37-5.31c0-1.74.06-3.66,1.32-5.12a11.58,11.58,0,0,1,2.65-2.24c1-.49,1.19-.93-.15-.68A11.18,11.18,0,0,0,181,3.22a10.72,10.72,0,0,0-3.36,8.07,12.15,12.15,0,0,0,1.55,6,12.46,12.46,0,0,0,4.33,4.56,62,62,0,0,0,8.22,4.09q6.11,2.6,8.42,4.87a7.76,7.76,0,0,1,2.3,5.71,11.6,11.6,0,0,1-2.62,7.33q-2.62,2.72-7.4,2.72c-7.08,0-11.57-6-13.46-15.46h-1.67V45.66H179a11.39,11.39,0,0,1,1.64-4.41A15.81,15.81,0,0,0,193.06,47q6.48,0,10.35-3.64a12.38,12.38,0,0,0,3.87-9.45,12.83,12.83,0,0,0-1.6-6.48A11.85,11.85,0,0,0,201.43,23Z"/><path class="cls-1" d="M340.77,19.09A3,3,0,0,1,339,20.81a10.36,10.36,0,0,1-3.41.54V23a12.4,12.4,0,0,1,3.07.37A3.07,3.07,0,0,1,340.55,25a13.23,13.23,0,0,1,.64,5.06h1.57V14.6h-1.57A15.59,15.59,0,0,1,340.77,19.09Z"/><path class="cls-1" d="M349.85,40.41c-1.39,1.9-2.86,3.59-4.39,4.21a16,16,0,0,1-5.88.92h-3.37q-4.54,0-5.58-1.42c-.69-.95-1-5-1-10.41v-6h0V15.2h0V1.34h6.28a32.4,32.4,0,0,1,6.88.52c1.43.35,2.66,1.64,3.69,3s1.91,4.14,2.62,7.3h1.57L349.57.84H317.2v.51a8,8,0,0,1,4.29,1.11c.68.44,1.11,1.77,1.3,2.86a50.44,50.44,0,0,1,.28,6.81V34.34a52.9,52.9,0,0,1-.27,7.06,7.23,7.23,0,0,1-1.25,3.23q-1,.9-4.36.9h-.94v.59h37.51l1-14.1h-1.6C352.34,35.37,351.24,38.51,349.85,40.41Z"/><path class="cls-1" d="M275.38,43.79A3.61,3.61,0,0,1,274,41.33a55.65,55.65,0,0,1-.27-7V23.42H300c0,3.21,0,5.92,0,6.92a2.19,2.19,0,0,0,1.59,0c0-3,.16-21.69.39-22.89a6.63,6.63,0,0,1,2-4c1.21-.95,4.79-.94,6.73-1h0V.84H290.12V2.37h0c2.09.13,6.12.16,7.28,1.15a7.51,7.51,0,0,1,2.32,4c.12.7.2,7.51.26,13.58H273.76v-9A42.55,42.55,0,0,1,274.11,5a2.91,2.91,0,0,1,1.38-2.05,10.91,10.91,0,0,1,4.34-.55h.83V.84H260.29V2.37h.84q3.44,0,4.46.6a3.05,3.05,0,0,1,1.33,2.17,45.92,45.92,0,0,1,.32,7V34.34a48.31,48.31,0,0,1-.32,7.23,3.41,3.41,0,0,1-1.43,2.29,7.84,7.84,0,0,1-4,.74h-1.17v1.54h20.37V44.59H279.5Q276.46,44.59,275.38,43.79Z"/><path class="cls-1" d="M305.86,43.79a3.54,3.54,0,0,1-1.35-2.46,59.81,59.81,0,0,1-.25-7V33.15h-6.54v1.19a51,51,0,0,1-.3,7.23A3.35,3.35,0,0,1,296,43.85a7.75,7.75,0,0,1-4,.74h-1.57v1.54H311V44.59h-1Q307,44.59,305.86,43.79Z"/><path class="cls-1" d="M454.39.47A16.63,16.63,0,0,1,464.82,4C467.91,6.43,470,11.9,471,18h1.44L472,.84h-1.47a16.53,16.53,0,0,1-1.74,5.88,18.46,18.46,0,0,0-6.16-4.63A20.11,20.11,0,0,0,453.42,0a22.77,22.77,0,0,0-11.29,2.87,19.42,19.42,0,0,0-8,8.8,28.61,28.61,0,0,0-2.87,12.64q0,10.22,6.23,16.43a21.21,21.21,0,0,0,13.94,6.13.68.68,0,0,1,0-.45A14.45,14.45,0,0,1,443,41.3c-3.05-3.62-4.06-10.49-4.06-17.28,0-7.17,1.4-13.91,4.19-17.77A13.26,13.26,0,0,1,454.39.47Z"/><path class="cls-1" d="M468.33,37.29c-1.28,2.44-3.24,5.62-5.4,7.19a1,1,0,0,1,.19.2,19.93,19.93,0,0,0,5.66-4.47A12.18,12.18,0,0,1,471,45h1.44V29.12H471A22.51,22.51,0,0,1,468.33,37.29Z"/></g></g></svg>